HIERARCHY
ROOT Hips
{
	OFFSET 0.000000 71.427986 0.000000
	CHANNELS 6 Xposition Yposition Zposition Xrotation Yrotation Zrotation
	JOINT Pelvis
	{
		OFFSET 0.000000 0.000000 0.000000
		CHANNELS 3 Xrotation Yrotation Zrotation
		JOINT LeftUpLeg
		{
			OFFSET 6.797100 -2.508499 -1.318700
			CHANNELS 3 Xrotation Yrotation Zrotation
			JOINT LeftLeg
			{
				OFFSET 0.069008 -29.241863 0.690200
				CHANNELS 3 Xrotation Yrotation Zrotation
				JOINT LeftFoot
				{
					OFFSET -0.069008 -29.568123 -0.266800
					CHANNELS 3 Xrotation Yrotation Zrotation
					JOINT LeftToeBase
					{
						OFFSET 3.145500 -8.631000 16.059900
						CHANNELS 3 Xrotation Yrotation Zrotation
						End Site
						{
							OFFSET 0.000000 18.501587 0.000000
						}
					}
				}
			}
			JOINT Left_ShortSleeve
			{
				OFFSET 0.265923 -10.480953 1.153800
				CHANNELS 3 Xrotation Yrotation Zrotation
				End Site
				{
					OFFSET 1.725763 19.823879 0.000000
				}
			}
		}
		JOINT RightUpLeg
		{
			OFFSET -6.797100 -2.508499 -1.318700
			CHANNELS 3 Xrotation Yrotation Zrotation
			JOINT RightLeg
			{
				OFFSET -0.082453 -29.241932 0.688000
				CHANNELS 3 Xrotation Yrotation Zrotation
				JOINT RightFoot
				{
					OFFSET 0.082453 -29.568058 -0.264600
					CHANNELS 3 Xrotation Yrotation Zrotation
					JOINT RightToeBase
					{
						OFFSET -3.115300 -8.682800 16.113400
						CHANNELS 3 Xrotation Yrotation Zrotation
						End Site
						{
							OFFSET 0.000000 18.567114 0.000000
						}
					}
				}
			}
			JOINT Right_ShortSleeve
			{
				OFFSET -0.265923 -10.480953 1.153800
				CHANNELS 3 Xrotation Yrotation Zrotation
				End Site
				{
					OFFSET -1.725766 19.823910 0.000000
				}
			}
		}
	}
	JOINT Spine
	{
		OFFSET 0.000000 13.368103 0.470500
		CHANNELS 3 Xrotation Yrotation Zrotation
		JOINT Spine1
		{
			OFFSET 0.147000 13.837402 0.538800
			CHANNELS 3 Xrotation Yrotation Zrotation
			JOINT Spine2
			{
				OFFSET 0.168000 16.242897 -1.435500
				CHANNELS 3 Xrotation Yrotation Zrotation
				JOINT Neck
				{
					OFFSET 0.217200 18.631500 -1.679100
					CHANNELS 3 Xrotation Yrotation Zrotation
					JOINT Head
					{
						OFFSET 0.000000 6.599396 1.385900
						CHANNELS 3 Xrotation Yrotation Zrotation
						JOINT Hat
						{
							OFFSET -0.532200 27.220596 -10.096100
							CHANNELS 3 Xrotation Yrotation Zrotation
							End Site
							{
								OFFSET 0.000000 22.029861 0.000000
							}
						}
						JOINT HairD
						{
							OFFSET -10.777400 17.437393 -1.325900
							CHANNELS 3 Xrotation Yrotation Zrotation
							JOINT HairD1
							{
								OFFSET -3.290299 -11.051193 1.062200
								CHANNELS 3 Xrotation Yrotation Zrotation
								End Site
								{
									OFFSET 0.000000 11.579437 0.000000
								}
							}
						}
						JOINT HairB
						{
							OFFSET -10.777400 17.437393 1.467900
							CHANNELS 3 Xrotation Yrotation Zrotation
							JOINT HairB1
							{
								OFFSET -1.561200 -12.956299 3.590200
								CHANNELS 3 Xrotation Yrotation Zrotation
								End Site
								{
									OFFSET 0.000000 13.534866 0.000000
								}
							}
						}
						JOINT HairA
						{
							OFFSET 9.713100 17.437393 1.467900
							CHANNELS 3 Xrotation Yrotation Zrotation
							JOINT HairA1
							{
								OFFSET 1.561200 -12.956299 3.590200
								CHANNELS 3 Xrotation Yrotation Zrotation
								End Site
								{
									OFFSET 0.000000 13.534866 0.000000
								}
							}
						}
						JOINT HairC
						{
							OFFSET 9.713100 17.437393 -1.325900
							CHANNELS 3 Xrotation Yrotation Zrotation
							JOINT HairC1
							{
								OFFSET 3.290300 -11.051193 1.062200
								CHANNELS 3 Xrotation Yrotation Zrotation
								End Site
								{
									OFFSET 0.000000 11.579437 0.000000
								}
							}
						}
					}
				}
				JOINT LeftShoulder
				{
					OFFSET 5.101800 15.108002 -2.763700
					CHANNELS 3 Xrotation Yrotation Zrotation
					JOINT LeftArm
					{
						OFFSET 9.825497 2.506317 -1.597400
						CHANNELS 3 Xrotation Yrotation Zrotation
						JOINT LeftForeArm
						{
							OFFSET 21.966244 0.000000 0.000000
							CHANNELS 3 Xrotation Yrotation Zrotation
							JOINT LeftHand
							{
								OFFSET 33.879036 0.000000 0.000000
								CHANNELS 3 Xrotation Yrotation Zrotation
								JOINT LeftHandThumb1
								{
									OFFSET 6.715286 -2.359680 3.363841
									CHANNELS 3 Xrotation Yrotation Zrotation
									JOINT LeftHandThumb2
									{
										OFFSET 2.507072 -1.447464 1.447461
										CHANNELS 3 Xrotation Yrotation Zrotation
										JOINT LeftHandThumb3
										{
											OFFSET 2.898338 -1.673355 1.673357
											CHANNELS 3 Xrotation Yrotation Zrotation
											End Site
											{
												OFFSET -0.295959 3.727692 -0.131651
											}
										}
									}
								}
								JOINT LeftHandIndex1
								{
									OFFSET 14.190811 -0.254547 3.840278
									CHANNELS 3 Xrotation Yrotation Zrotation
									JOINT LeftHandIndex2
									{
										OFFSET 3.551727 0.000000 -0.000000
										CHANNELS 3 Xrotation Yrotation Zrotation
										JOINT LeftHandIndex3
										{
											OFFSET 2.894196 0.000000 0.000000
											CHANNELS 3 Xrotation Yrotation Zrotation
											End Site
											{
												OFFSET -1.000603 2.690872 0.366626
											}
										}
									}
								}
								JOINT LeftHandMiddle1
								{
									OFFSET 13.776489 0.000000 0.000000
									CHANNELS 3 Xrotation Yrotation Zrotation
									JOINT LeftHandMiddle2
									{
										OFFSET 3.438232 0.000000 0.000000
										CHANNELS 3 Xrotation Yrotation Zrotation
										JOINT LeftHandMiddle3
										{
											OFFSET 3.691551 0.000000 0.000000
											CHANNELS 3 Xrotation Yrotation Zrotation
											End Site
											{
												OFFSET -1.082298 3.499527 0.457670
											}
										}
									}
								}
								JOINT LeftHandRing1
								{
									OFFSET 13.966164 -0.268127 -3.067488
									CHANNELS 3 Xrotation Yrotation Zrotation
									JOINT LeftHandRing2
									{
										OFFSET 3.162567 0.000000 0.000000
										CHANNELS 3 Xrotation Yrotation Zrotation
										JOINT LeftHandRing3
										{
											OFFSET 3.324348 0.000000 0.000000
											CHANNELS 3 Xrotation Yrotation Zrotation
											End Site
											{
												OFFSET -0.861900 3.184998 0.405154
											}
										}
									}
								}
								JOINT LeftHandPinky1
								{
									OFFSET 13.131393 -0.168503 -5.746925
									CHANNELS 3 Xrotation Yrotation Zrotation
									JOINT LeftHandPinky2
									{
										OFFSET 2.849182 0.000000 0.000000
										CHANNELS 3 Xrotation Yrotation Zrotation
										JOINT LeftHandPinky3
										{
											OFFSET 2.805038 0.000000 0.000000
											CHANNELS 3 Xrotation Yrotation Zrotation
											End Site
											{
												OFFSET -0.882500 2.642609 0.325652
											}
										}
									}
								}
							}
							JOINT Left_Sleeve
							{
								OFFSET 6.592125 -0.646545 0.805568
								CHANNELS 3 Xrotation Yrotation Zrotation
								End Site
								{
									OFFSET -0.000179 20.275787 -0.000000
								}
							}
						}
					}
				}
				JOINT RightShoulder
				{
					OFFSET -5.731700 15.108002 -2.763700
					CHANNELS 3 Xrotation Yrotation Zrotation
					JOINT RightArm
					{
						OFFSET -9.825497 2.506317 -1.597400
						CHANNELS 3 Xrotation Yrotation Zrotation
						JOINT RightForeArm
						{
							OFFSET -21.966242 0.000000 0.000000
							CHANNELS 3 Xrotation Yrotation Zrotation
							JOINT RightHand
							{
								OFFSET -33.879032 0.000000 0.000000
								CHANNELS 3 Xrotation Yrotation Zrotation
								JOINT RightHandThumb1
								{
									OFFSET -6.715286 -2.359680 3.363841
									CHANNELS 3 Xrotation Yrotation Zrotation
									JOINT RightHandThumb2
									{
										OFFSET -2.507072 -1.447464 1.447461
										CHANNELS 3 Xrotation Yrotation Zrotation
										JOINT RightHandThumb3
										{
											OFFSET -2.898338 -1.673355 1.673357
											CHANNELS 3 Xrotation Yrotation Zrotation
											End Site
											{
												OFFSET 0.295959 3.727692 -0.131651
											}
										}
									}
								}
								JOINT RightHandIndex1
								{
									OFFSET -14.190811 -0.254547 3.840278
									CHANNELS 3 Xrotation Yrotation Zrotation
									JOINT RightHandIndex2
									{
										OFFSET -3.551727 0.000000 -0.000000
										CHANNELS 3 Xrotation Yrotation Zrotation
										JOINT RightHandIndex3
										{
											OFFSET -2.894196 0.000000 0.000000
											CHANNELS 3 Xrotation Yrotation Zrotation
											End Site
											{
												OFFSET 1.000603 2.690872 0.366626
											}
										}
									}
								}
								JOINT RightHandMiddle1
								{
									OFFSET -13.776489 0.000000 0.000000
									CHANNELS 3 Xrotation Yrotation Zrotation
									JOINT RightHandMiddle2
									{
										OFFSET -3.438232 0.000000 0.000000
										CHANNELS 3 Xrotation Yrotation Zrotation
										JOINT RightHandMiddle3
										{
											OFFSET -3.691551 0.000000 0.000000
											CHANNELS 3 Xrotation Yrotation Zrotation
											End Site
											{
												OFFSET 1.082298 3.499527 0.457670
											}
										}
									}
								}
								JOINT RightHandRing1
								{
									OFFSET -13.966164 -0.268127 -3.067488
									CHANNELS 3 Xrotation Yrotation Zrotation
									JOINT RightHandRing2
									{
										OFFSET -3.162567 0.000000 0.000000
										CHANNELS 3 Xrotation Yrotation Zrotation
										JOINT RightHandRing3
										{
											OFFSET -3.324348 0.000000 0.000000
											CHANNELS 3 Xrotation Yrotation Zrotation
											End Site
											{
												OFFSET 0.861900 3.184998 0.405154
											}
										}
									}
								}
								JOINT RightHandPinky1
								{
									OFFSET -13.131393 -0.168503 -5.746925
									CHANNELS 3 Xrotation Yrotation Zrotation
									JOINT RightHandPinky2
									{
										OFFSET -2.849182 0.000000 0.000000
										CHANNELS 3 Xrotation Yrotation Zrotation
										JOINT RightHandPinky3
										{
											OFFSET -2.805038 0.000000 0.000000
											CHANNELS 3 Xrotation Yrotation Zrotation
											End Site
											{
												OFFSET 0.882500 2.642609 0.325652
											}
										}
									}
								}
							}
							JOINT Right_Sleeve
							{
								OFFSET -6.592125 -0.646545 0.805568
								CHANNELS 3 Xrotation Yrotation Zrotation
								End Site
								{
									OFFSET 0.000179 20.275787 -0.000000
								}
							}
						}
					}
				}
				JOINT Bind_Right_JacketString
				{
					OFFSET -3.534800 11.969597 7.200700
					CHANNELS 3 Xrotation Yrotation Zrotation
					JOINT Bind_Right_JacketString1
					{
						OFFSET -0.319900 -6.102600 2.794100
						CHANNELS 3 Xrotation Yrotation Zrotation
						End Site
						{
							OFFSET 0.000000 6.719452 0.000000
						}
					}
				}
				JOINT Bind_Left_JacketString
				{
					OFFSET 2.904800 11.969597 7.200700
					CHANNELS 3 Xrotation Yrotation Zrotation
					JOINT Bind_Left_JacketString1
					{
						OFFSET 0.364800 -5.904503 3.186800
						CHANNELS 3 Xrotation Yrotation Zrotation
						End Site
						{
							OFFSET 0.000000 6.719513 0.000000
						}
					}
				}
				JOINT HairE
				{
					OFFSET 5.915200 17.612701 -11.592200
					CHANNELS 3 Xrotation Yrotation Zrotation
					JOINT HairE1
					{
						OFFSET 0.289200 -7.171898 -1.284500
						CHANNELS 3 Xrotation Yrotation Zrotation
						End Site
						{
							OFFSET 0.000000 7.291756 0.000000
						}
					}
				}
				JOINT HairF
				{
					OFFSET -0.864800 17.612701 -11.592200
					CHANNELS 3 Xrotation Yrotation Zrotation
					JOINT HairF1
					{
						OFFSET 0.000000 -14.087097 -2.127501
						CHANNELS 3 Xrotation Yrotation Zrotation
						End Site
						{
							OFFSET 0.000000 14.246841 0.000000
						}
					}
				}
				JOINT HairG
				{
					OFFSET -8.087700 17.612701 -11.592200
					CHANNELS 3 Xrotation Yrotation Zrotation
					JOINT HairG1
					{
						OFFSET -0.293600 -6.081398 -0.910100
						CHANNELS 3 Xrotation Yrotation Zrotation
						End Site
						{
							OFFSET 0.000000 6.156120 0.000000
						}
					}
				}
			}
		}
	}
	JOINT Pouch
	{
		OFFSET 0.000000 4.394501 10.847300
		CHANNELS 3 Xrotation Yrotation Zrotation
		End Site
		{
			OFFSET 0.000000 21.880577 0.000000
		}
	}
	JOINT Bag
	{
		OFFSET -13.229000 4.813004 -0.593300
		CHANNELS 3 Xrotation Yrotation Zrotation
		End Site
		{
			OFFSET 0.000000 21.880577 0.000000
		}
	}
	JOINT OccupyGuyFacialAnim_Joint
	{
		OFFSET 1.000000 -70.206398 -1.655000
		CHANNELS 3 Xrotation Yrotation Zrotation
		End Site
		{
			OFFSET 0.000000 21.880577 0.000000
		}
	}
}
MOTION
Frames: 4
Frame Time: 0.033333
0.390501 38.899132 -1.098663 30.065707 -21.590832 8.099998 0.000000 -0.000001 0.000001 -100.923743 -7.587570 22.048995 121.686527 6.540739 -2.019040 -45.168256 -2.050698 -13.044381 0.000000 0.000000 0.000000 -0.000000 0.000000 0.000000 -93.030585 8.740576 -6.911491 128.574268 1.690157 -1.082056 -50.422905 -3.316104 7.113573 -0.000001 0.000000 -0.000001 -0.000000 -0.000001 -0.000004 12.838566 3.601077 0.417950 7.166998 0.425550 -2.615993 7.076437 1.647901 4.136970 -1.423382 8.519612 -17.292693 -44.828345 1.200171 4.443027 0.000001 0.000000 -0.000000 0.000001 0.000000 -0.000000 0.000001 0.000000 -0.000000 0.000001 0.000000 -0.000000 0.000001 -0.000000 -0.000000 0.000001 0.000000 -0.000000 0.000001 -0.000000 -0.000000 0.000001 0.000000 -0.000000 0.000001 0.000000 -0.000000 8.681245 -7.822593 14.948084 -86.305799 -12.324854 -32.652334 4.990618 -43.314461 8.168123 -58.781598 -1.451734 7.666676 17.551634 -5.699243 -12.932256 10.850517 26.127705 8.644810 0.000002 0.000001 0.000000 13.980929 1.201522 -55.004350 0.381462 1.169590 -65.441914 0.000003 -0.000001 0.000002 7.504747 1.174354 -63.778510 1.808000 1.478085 -64.568053 -0.000000 -0.000001 -0.000001 8.574663 2.177870 -75.148965 -0.201115 0.998925 -57.855152 -0.000002 0.000001 -0.000001 10.030123 13.637024 -84.750237 0.869748 0.055088 -64.595093 0.000001 -0.000000 -0.000002 0.000001 0.000001 0.000000 8.620074 12.715594 14.282009 -9.159192 -2.823231 38.633780 3.786368 23.910961 -1.776274 0.371010 7.531212 -7.147316 15.788279 -2.733870 -17.205740 -2.197763 -31.115910 7.360329 0.000003 0.000002 -0.000002 2.374082 -3.658675 8.485696 -2.146978 -2.473263 18.675233 0.000001 -0.000001 0.000000 -1.985283 -5.700354 13.660494 0.283054 -5.101229 26.989945 -0.000000 -0.000000 0.000003 -3.262965 -8.561943 11.767228 4.032209 -4.062856 33.264066 -0.000000 -0.000004 -0.000002 -6.473805 -11.341252 23.261012 10.720303 -2.557839 34.823877 0.000001 0.000001 0.000002 0.000001 -0.000000 -0.000001 0.000002 0.000000 -0.000001 0.000001 0.000001 -0.000001 0.000002 0.000000 -0.000001 0.000002 0.000000 -0.000001 0.000002 0.000000 -0.000001 0.000001 0.000001 -0.000001 0.000002 0.000000 -0.000001 0.000002 0.000000 -0.000001 0.000002 0.000000 -0.000001 0.000001 0.000001 -0.000001 0.000000 -0.000001 0.000001 0.000000 -0.000001 0.000001 0.000000 -0.000001 0.000001 
0.619413 38.900211 -1.027561 30.013811 -21.908088 7.857053 0.000002 0.000000 0.000001 -100.960523 -7.490963 22.048566 121.889206 6.884910 -1.997177 -45.383656 -2.127620 -12.874653 0.000000 -0.000000 0.000000 0.000002 0.000001 0.000001 -92.939894 8.973748 -7.073432 128.362177 2.400802 -1.040490 -50.070737 -3.391859 7.305767 0.000001 -0.000001 0.000000 -0.000000 0.000000 0.000001 12.847880 3.619998 0.413820 7.202080 0.439242 -2.525570 7.111253 1.676041 4.226427 -1.817428 7.491889 -16.995445 -44.215626 -0.232713 4.969007 0.000001 0.000000 -0.000000 0.000001 0.000000 -0.000000 0.000001 0.000000 -0.000000 0.000001 0.000000 0.000000 0.000001 0.000000 0.000000 0.000001 0.000000 0.000000 0.000001 0.000000 0.000000 0.000001 0.000000 -0.000000 0.000001 0.000000 -0.000000 8.596030 -7.875587 14.932942 -86.432479 -12.363158 -32.914559 4.944289 -43.396771 8.134739 -58.819868 -1.235860 7.765082 17.551633 -5.699243 -12.932255 10.850520 26.127709 8.644809 -0.000001 0.000001 0.000000 13.980926 1.201522 -55.004350 0.381463 1.169592 -65.441914 0.000000 0.000002 -0.000003 7.504746 1.174356 -63.778503 1.808001 1.478083 -64.568053 0.000000 -0.000000 0.000001 8.574662 2.177871 -75.148965 -0.201113 0.998925 -57.855145 -0.000000 0.000000 -0.000002 10.030123 13.637027 -84.750237 0.869747 0.055086 -64.595087 -0.000001 -0.000001 0.000003 0.000002 0.000001 -0.000000 8.650089 12.632357 14.249415 -9.579367 -2.943431 38.520679 3.514462 24.392516 -1.645065 0.288364 7.544466 -7.392149 14.360220 -1.848476 -17.071745 -2.069512 -31.300069 7.376742 -0.000002 0.000000 0.000002 2.616680 -3.788194 9.442608 -2.351293 -2.480463 19.760630 -0.000001 0.000001 0.000000 -1.975749 -5.855159 14.427581 0.288568 -5.132423 28.296821 0.000001 0.000000 -0.000001 -3.512306 -8.831228 12.487759 3.990048 -4.067238 34.327875 -0.000001 -0.000002 -0.000002 -7.111788 -11.762047 23.550762 10.646665 -2.613406 35.815938 0.000000 -0.000002 0.000000 0.000001 0.000001 -0.000002 0.000002 -0.000001 0.000000 0.000002 0.000001 0.000000 0.000002 -0.000001 0.000000 0.000002 -0.000001 0.000000 0.000002 -0.000001 0.000000 0.000002 0.000001 0.000001 0.000002 -0.000001 0.000000 0.000002 -0.000001 0.000000 0.000002 -0.000001 0.000000 0.000002 0.000001 0.000001 0.000002 0.000000 0.000001 0.000002 0.000000 0.000001 0.000002 0.000000 0.000001 
1.021407 38.899879 -0.944294 29.959751 -22.211931 7.622810 0.000000 -0.000000 -0.000000 -101.168270 -7.006438 22.005497 122.135134 7.389220 -1.967065 -45.662871 -2.390320 -12.430511 0.000000 -0.000000 -0.000000 -0.000000 0.000000 0.000000 -92.885559 9.581699 -7.375402 128.043357 3.365496 -0.984379 -49.525627 -3.572113 7.697978 0.000000 0.000001 -0.000001 0.000000 0.000001 -0.000001 12.911236 3.649139 0.454735 7.279599 0.458891 -2.395713 7.187651 1.718205 4.352428 -2.700339 5.339810 -16.335772 -42.927606 -3.027913 5.840696 0.000000 -0.000001 0.000000 0.000000 -0.000001 0.000000 0.000000 -0.000001 0.000000 0.000000 -0.000001 0.000000 -0.000001 0.000000 0.000000 0.000000 -0.000001 0.000000 -0.000001 0.000000 0.000000 0.000000 -0.000001 0.000000 0.000000 -0.000001 0.000000 8.487006 -7.954772 14.899214 -86.621654 -12.652854 -33.369804 4.935622 -43.549747 8.102075 -58.870889 -0.967692 7.773235 17.551631 -5.699243 -12.932257 10.850520 26.127705 8.644805 -0.000001 0.000001 -0.000000 13.980931 1.201523 -55.004353 0.381461 1.169589 -65.441914 0.000001 0.000002 -0.000003 7.504746 1.174355 -63.778510 1.808001 1.478084 -64.568053 0.000000 -0.000000 -0.000003 8.574663 2.177871 -75.148965 -0.201114 0.998925 -57.855152 -0.000001 0.000000 0.000003 10.030123 13.637027 -84.750244 0.869747 0.055088 -64.595087 -0.000001 0.000000 0.000003 0.000002 -0.000001 -0.000000 8.729320 12.409944 14.161593 -10.704232 -3.255779 38.221076 2.771228 25.104306 -1.295684 0.061932 7.584767 -8.025402 12.808352 -0.896349 -16.851111 -1.925924 -31.508212 7.396245 -0.000001 -0.000003 -0.000003 2.870869 -3.920821 10.529250 -2.574893 -2.498431 20.963271 -0.000001 0.000001 -0.000001 -1.952058 -6.026027 15.305197 0.301090 -5.168077 29.750491 0.000003 -0.000000 -0.000001 -3.783834 -9.135568 13.299350 3.947532 -4.073888 35.507152 -0.000001 0.000000 -0.000003 -7.793165 -12.233244 23.910291 10.574130 -2.673467 36.916636 -0.000002 -0.000002 -0.000001 -0.000001 0.000002 0.000001 -0.000002 -0.000000 0.000001 -0.000003 -0.000001 0.000001 -0.000002 -0.000000 0.000001 -0.000002 -0.000000 0.000001 -0.000002 -0.000000 0.000001 -0.000003 -0.000001 0.000001 -0.000002 -0.000000 0.000001 -0.000002 -0.000000 0.000001 -0.000002 -0.000000 0.000001 -0.000003 -0.000001 0.000001 0.000000 -0.000000 -0.000000 0.000000 -0.000000 -0.000000 0.000000 -0.000000 -0.000000 
1.543502 38.903271 -0.844456 29.926327 -22.648076 7.432510 -0.000002 -0.000001 -0.000000 -101.426841 -6.270990 22.000859 122.410459 8.098543 -1.924816 -46.024943 -2.743304 -11.890852 -0.000000 -0.000000 -0.000000 -0.000002 0.000001 0.000000 -92.908372 10.404699 -7.747264 127.615036 4.605030 -0.911651 -48.788338 -3.757090 8.120233 -0.000001 -0.000002 -0.000000 0.000001 0.000000 -0.000001 13.034956 3.702726 0.636134 7.390344 0.468778 -2.173312 7.297696 1.780058 4.568010 -4.214977 1.434756 -15.131405 -40.607718 -7.604527 7.022161 0.000001 -0.000002 0.000000 0.000001 -0.000002 0.000000 0.000001 -0.000002 0.000000 0.000001 -0.000002 0.000000 -0.000000 -0.000000 0.000000 0.000001 -0.000002 0.000000 -0.000000 -0.000000 0.000000 0.000001 -0.000002 0.000000 0.000001 -0.000002 0.000000 8.398880 -8.067638 14.820117 -86.941095 -13.524912 -34.224271 5.231235 -43.674685 8.312853 -58.923523 -0.713461 7.606634 17.551634 -5.699245 -12.932256 10.850515 26.127705 8.644808 -0.000001 -0.000000 0.000001 13.980929 1.201522 -55.004350 0.381461 1.169588 -65.441914 0.000001 0.000000 0.000002 7.504749 1.174356 -63.778510 1.808000 1.478085 -64.568046 0.000000 0.000000 -0.000003 8.574664 2.177870 -75.148965 -0.201115 0.998926 -57.855145 -0.000000 0.000000 0.000000 10.030123 13.637025 -84.750237 0.869746 0.055088 -64.595093 -0.000000 0.000001 -0.000001 0.000002 0.000000 -0.000000 8.842089 12.087803 14.033079 -12.339034 -3.688504 37.795101 1.695226 25.984915 -0.784426 -0.277284 7.654856 -8.899648 11.178184 0.095965 -16.550114 -1.772839 -31.731642 7.418028 0.000001 -0.000002 0.000003 3.135543 -4.051266 11.698173 -2.810499 -2.529365 22.239946 -0.000001 -0.000001 0.000002 -1.918042 -6.208078 16.258780 0.319535 -5.207922 31.305667 0.000000 0.000002 -0.000002 -4.067743 -9.470606 14.177680 3.905638 -4.083764 36.772127 0.000000 -0.000001 -0.000003 -8.505632 -12.749746 24.322199 10.505036 -2.738348 38.102818 0.000002 0.000002 0.000001 0.000001 -0.000001 0.000001 -0.000002 -0.000001 -0.000001 -0.000000 0.000001 -0.000002 -0.000002 -0.000001 -0.000001 -0.000002 -0.000001 -0.000001 -0.000002 -0.000001 -0.000001 -0.000000 0.000001 -0.000002 -0.000002 -0.000001 -0.000001 -0.000002 -0.000001 -0.000001 -0.000002 -0.000001 -0.000001 -0.000000 0.000001 -0.000002 -0.000002 -0.000001 -0.000000 -0.000002 -0.000001 -0.000000 -0.000002 -0.000001 -0.000000 
